<svg width="49" height="31" viewBox="0 0 49 31" fill="none" xmlns="http://www.w3.org/2000/svg">
<g opacity="0.7">
<path d="M23.2535 11.6315C19.724 10.274 -4.43932 10.274 0.719152 17.6045C2.23955 13.0433 22.439 12.446 25.9685 14.8895C26.5115 14.075 26.783 12.989 23.2535 11.6315Z" fill="#F3FAFF"/>
<path d="M7.23535 22.763C10.2761 24.5005 23.2537 1.5861 23.5252 1.31461C23.7967 1.04311 25.9687 1.31461 26.2402 1.5861C26.5117 1.8576 15.6518 26.6027 6.96385 24.1205C3.16288 23.0345 6.14938 17.0615 9.13583 16.247C11.7422 16.4642 11.0363 17.0615 11.0363 17.0615C10.7648 17.0615 4.79186 21.134 7.23535 22.763Z" fill="#F3FAFF"/>
<path d="M24.3068 30.0934C13.9899 30.6364 21.5918 13.532 26.7503 0.228608C26.9608 -0.31438 28.9223 1.04311 29.1938 2.40059C21.809 16.7357 22.8588 26.8354 24.3068 30.0934Z" fill="#F3FAFF"/>
<path d="M22.4507 12.4461C22.2335 11.5773 25.0752 6.83511 26.5232 4.57263C27.3377 4.30113 28.4237 5.65862 28.1522 5.93012C25.9802 8.6451 24.6227 13.5321 24.6227 14.3466C24.0797 14.3466 22.7222 13.5321 22.4507 12.4461Z" fill="#F3FAFF"/>
<path d="M39.8265 4.02961C37.8717 3.81241 29.238 5.9301 25.1656 7.01609L24.3511 10.2741C25.4371 8.97088 33.039 6.74459 38.1975 6.74459C39.555 5.9301 40.5236 4.10707 39.8265 4.02961Z" fill="#F3FAFF"/>
<path d="M25.4374 16.79C26.0889 16.79 34.9398 8.64507 39.2838 4.5726C39.5553 4.5726 41.4557 5.3871 40.9127 6.74459C40.3697 8.10208 26.5233 19.2335 25.9803 19.2335C25.4374 19.2335 24.6229 16.79 25.4374 16.79Z" fill="#F3FAFF"/>
<path d="M47.4287 21.4055C40.6955 17.0616 29.2383 16.8806 24.3514 17.3331C23.8083 17.6046 24.6229 20.048 24.8943 20.048C24.8943 20.048 24.9848 19.686 25.1658 19.505C34.3968 18.6906 46.3427 23.306 46.8857 23.5775C47.3201 23.7947 47.2477 24.392 47.1572 24.6635C48.5147 24.935 48.5147 21.9485 47.4287 21.4055Z" fill="#F3FAFF"/>
</g>
</svg>
